<?xml version="1.0" encoding="iso-8859-1"?>
<!-- Uploaded to: SVG Repo, www.svgrepo.com, Generator: SVG Repo Mixer Tools -->
<svg version="1.1" id="Layer_1" xmlns="http://www.w3.org/2000/svg" xmlns:xlink="http://www.w3.org/1999/xlink" 
	 viewBox="0 0 390.206 390.206" xml:space="preserve">
<path style="fill:#FFC10D;" d="M357.689,81.002H32.517c-5.947,0-10.861,4.848-10.861,10.861v206.481
	c0,5.948,4.848,10.861,10.861,10.861h325.172c5.948,0,10.861-4.849,10.861-10.861V91.863
	C368.549,85.915,363.636,81.002,357.689,81.002z"/>
<g>
	<rect x="72.598" y="124.38" style="fill:#56ACE0;" width="40.081" height="57.988"/>
	<rect x="72.598" y="250.634" style="fill:#56ACE0;" width="40.081" height="14.61"/>
	<path style="fill:#56ACE0;" d="M134.4,124.38h49.842v140.929H134.4v-25.471c0-5.947-4.848-10.861-10.861-10.861H72.598V202.99
		h50.941c5.947,0,10.861-4.848,10.861-10.861V124.38z"/>
	<rect x="205.964" y="205.705" style="fill:#56ACE0;" width="35.749" height="59.604"/>
	<path style="fill:#56ACE0;" d="M251.992,183.984h-46.093V124.38h9.244C218.376,149.333,231.952,170.99,251.992,183.984z"/>
	<path style="fill:#56ACE0;" d="M288.84,124.38v51.459c-26.57-4.331-47.127-25.471-51.459-51.459H288.84z"/>
	<rect x="263.952" y="205.705" style="fill:#56ACE0;" width="24.954" height="59.604"/>
</g>
<g>
	<path style="fill:#194F82;" d="M357.689,59.345H32.517C14.61,59.345,0,73.956,0,91.863v206.481
		c0,17.907,14.61,32.517,32.517,32.517h325.172c17.907,0,32.517-14.61,32.517-32.517V91.863
		C390.206,73.956,375.596,59.345,357.689,59.345z M368.549,297.826c0,5.947-4.849,10.861-10.861,10.861H32.517
		c-5.947,0-10.861-4.848-10.861-10.861V91.863c0-5.947,4.848-10.861,10.861-10.861h325.172c5.948,0,10.861,4.848,10.861,10.861
		V297.826z"/>
	<path style="fill:#194F82;" d="M339.265,169.891c-5.947,0-10.861,4.848-10.861,10.861v28.186c0,5.947,4.848,10.861,10.861,10.861
		c5.947,0,10.861-4.848,10.861-10.861v-28.186C350.125,174.804,345.212,169.891,339.265,169.891z"/>
	<path style="fill:#194F82;" d="M299.701,102.723H61.802c-5.947,0-10.861,4.848-10.861,10.861v163.103
		c0,5.947,4.848,10.861,10.861,10.861h237.382c5.947,0,10.861-4.848,10.861-10.861V113.519
		C310.562,107.572,305.648,102.723,299.701,102.723z M72.598,124.38h40.081v57.988H72.598V124.38z M112.743,265.309H72.663v-14.61
		h40.081V265.309z M184.242,265.309H134.4v-25.471c0-5.947-4.848-10.861-10.861-10.861H72.598V202.99h50.941
		c5.947,0,10.861-4.848,10.861-10.861v-67.75h49.842V265.309z M241.713,265.309h-35.749v-59.604h35.749V265.309z M205.964,183.984
		V124.38h9.18c3.232,24.954,16.808,46.61,36.848,59.604H205.964z M288.84,265.309h-24.954v-59.604h24.954V265.309z M288.84,175.903
		c-26.57-4.331-47.127-25.471-51.459-51.459h51.459V175.903z"/>
</g>
</svg>